inDegrees=yes
name=ik_data_2024_11_07_17_57
DataType=double
version=3
OpenSimVersion=4.5.1
endheader
time	pelvis_tilt	pelvis_list	pelvis_rotation	pelvis_tx	pelvis_ty	pelvis_tz	hip_flexion_r	hip_adduction_r	hip_rotation_r	knee_angle_r	knee_angle_r_beta	ankle_angle_r	subtalar_angle_r	mtp_angle_r	hip_flexion_l	hip_adduction_l	hip_rotation_l	knee_angle_l	knee_angle_l_beta	ankle_angle_l	subtalar_angle_l	mtp_angle_l	lumbar_extension	lumbar_bending	lumbar_rotation	arm_flex_r	arm_add_r	arm_rot_r	elbow_flex_r	pro_sup_r	wrist_flex_r	wrist_dev_r	arm_flex_l	arm_add_l	arm_rot_l	elbow_flex_l	pro_sup_l	wrist_flex_l	wrist_dev_l
0	-0.005272244955487508	-0.002782838282997142	28.10359229803311	0	0.9399999999999999	0	0.2805594845826714	-0.01639215886434063	-0.08096399226633455	0.5331657771377446	0.009305498270007952	-5.185054887194358	0	0	0.2806943245892685	-0.005831465860298091	-0.09082499608126521	0.5352950195624466	0.00934266056089215	-5.185054887194358	0	0	0	0	0	0	-3.857373665272145	0	60.77010963703352	50.87509525692484	0	0	0	-3.857373665272145	0	60.77010963703352	50.87509525692484	0	0
0.05464	-0.0116058156644576	0.1025372110515875	28.49944641960953	0	0.9399999999999999	0	-0.01401201992580199	0.09958493752447875	-0.4889143716097872	0.6414736604596168	0.01119582743984048	-5.184756837319931	0	0	0.234635892891383	0.08585338517196729	0.3153964282825868	0.5252472066448934	0.00916729314285643	-5.184756837319931	0	0	0	0	0	0	-3.859423132785056	0	60.77534350475376	50.869251268692	0	0	0	-3.859423132785056	0	60.77534350475376	50.869251268692	0	0
0.08971999999999999	0.009705186740547132	0.2986886999464161	29.30978569564346	0	0.9399999999999999	0	-0.3975025442174525	-0.1387002503394466	-1.325768060490577	0.5852224371340999	0.01021405838453557	-5.184491165310596	0	0	0.1342128362975973	0.2497472815689847	1.123116190765087	0.5443081819013869	0.009499969919723409	-5.184491165310596	0	0	0	0	0	0	-3.861302544843576	0	60.78009843735715	50.86400979682993	0	0	0	-3.861302544843576	0	60.78009843735715	50.86400979682993	0	0
0.13507	0.07452399610863411	0.211154123084258	28.98284668432533	0	0.9399999999999999	0	-0.4967827433550048	-0.2532940532259264	-1.011100137094169	0.4280038789318759	0.007470076898668424	-5.18425963804016	0	0	0.105169268000746	0.1476418137603827	0.8045008943588496	0.5120568837537801	0.008937078579005324	-5.18425963804016	0	0	0	0	0	0	-3.862910331821579	0	60.78419299208768	50.85945821218329	0	0	0	-3.862910331821579	0	60.78419299208768	50.85945821218329	0	0
0.18818	0.187249943317685	0.1313610948004996	28.61297218877602	0	0.9399999999999999	0	-0.7793952503840806	-0.1415081411256292	-0.662668004966212	0.4911867809396215	0.008572826569668523	-5.184003781255896	0	0	0.04712078397583271	0.01533022214564319	0.4371526279061108	0.5249119473294994	0.009161441763954821	-5.184003781255896	0	0	0	0	0	0	-3.864696601942601	0	60.78874090996113	50.85441568247803	0	0	0	-3.864696601942601	0	60.78874090996113	50.85441568247803	0	0
0.22246	0.2416549267041476	-0.1401207172660752	27.63253848322594	0	0.9399999999999999	0	-0.8200973229239203	0.008527158189643155	0.2898418429195072	0.426861376161993	0.007450136463620813	-5.183696499355412	0	0	0.1165112800442585	-0.2503508578740011	-0.5495007333161641	0.5143038356594993	0.008976295287894086	-5.183696499355412	0	0	0	0	0	0	-3.866859943824512	0	60.7942295173597	50.84835235768967	0	0	0	-3.866859943824512	0	60.7942295173597	50.84835235768967	0	0
0.26811	0.2052390537419946	-0.2376107403032352	27.26584019124592	0	0.9399999999999999	0	-0.9595335748667587	0.09390323034727324	0.6723354813405378	0.2988055227665536	0.005215140195419236	-5.18347355272611	0	0	0.2069707459419329	-0.3238964055935923	-0.9203885928211009	0.5245958819811285	0.009155925382974286	-5.18347355272611	0	0	0	0	0	0	-3.868447763172153	0	60.79825774206944	50.84392747489893	0	0	0	-3.868447763172153	0	60.79825774206944	50.84392747489893	0	0
0.32445	0.2542859736136863	-0.4212736439048406	26.58014361963962	0	0.9399999999999999	0	-1.438186879516225	0.2659272509605048	1.346222995674637	0.2418180592922431	0.00422052132543251	-5.183226824407584	0	0	0.2424991115307181	-0.505864096381039	-1.589618279514389	0.5307505759863503	0.009263345057818164	-5.183226824407584	0	0	0	0	0	0	-3.870171019778033	0	60.80264761830816	50.83906090132817	0	0	0	-3.870171019778033	0	60.80264761830816	50.83906090132817	0	0
0.36	0.2806643093737726	-0.5081519078143276	26.2066742651025	0	0.9399999999999999	0	-1.825555653017661	0.4242442320379173	1.707245912360578	0.202769049131518	0.003538987528483138	-5.181497715703454	0	0	0.2357785986889425	-0.5983614149653087	-1.972697713427998	0.509596517115019	0.008894137080352716	-5.181497715703454	0	0	0	0	0	0	-3.882210981140764	0	60.83340148988507	50.80491673971961	0	0	0	-3.882210981140764	0	60.83340148988507	50.80491673971961	0	0
0.40255	0.3229926063180462	-0.9217432956707583	24.68750623564539	0	0.9399999999999999	0	-1.929304279651208	0.7351326266524422	3.220702933155016	0.2063370216975114	0.003601260397380552	-5.178531794659897	0	0	0.3670793073984413	-0.9994278981248498	-3.483767228178513	0.5177660947699179	0.009036723108928059	-5.178531794659897	0	0	0	0	0	0	-3.903069992366963	0	60.88659484930655	50.74612015584697	0	0	0	-3.903069992366963	0	60.88659484930655	50.74612015584697	0	0
0.45067	0.3208541397393095	-1.352787682013044	22.975171035029	0	0.9399999999999999	0	-1.959037018979905	0.8845731695298034	4.903559183593713	0.1778330961039819	0.003103773046029984	-5.175301196056239	0	0	0.4980006901443073	-1.4043821855748	-5.197305133934684	0.5176674269708652	0.009035001030968893	-5.175301196056239	0	0	0	0	0	0	-3.926095924414685	0	60.94521047618077	50.68171127672206	0	0	0	-3.926095924414685	0	60.94521047618077	50.68171127672206	0	0
0.50186	0.3335963814048886	-1.678013920907903	21.72046706750051	0	0.9399999999999999	0	-2.120476349521478	1.056612394764148	6.139503872737805	0.1827135135287196	0.00318895239896336	-5.172583729558125	0	0	0.5675638147810403	-1.721566882912481	-6.45312013279762	0.5120303613333095	0.008936615675442513	-5.172583729558125	0	0	0	0	0	0	-3.945843472637302	0	60.99532836549111	50.62711578528409	0	0	0	-3.945843472637302	0	60.99532836549111	50.62711578528409	0	0
0.55323	0.3404900881484835	-2.037819618089856	20.32372519504386	0	0.9399999999999999	0	-2.286583067867338	1.245933312507564	7.527354635324589	0.1703440021100408	0.00297306369784438	-5.169695583936642	0	0	0.6413375658809438	-2.074006785223883	-7.851071962764509	0.5118406916927584	0.008933305315723821	-5.169695583936642	0	0	0	0	0	0	-3.967106682789947	0	61.04919479464589	50.56877424184486	0	0	0	-3.967106682789947	0	61.04919479464589	50.56877424184486	0	0
